<svg width="87" height="32" viewBox="0 0 87 32" fill="none" xmlns="http://www.w3.org/2000/svg">
<path d="M1.53871 20.5V11.0455H4.90874C5.64122 11.0455 6.24905 11.1716 6.73224 11.424C7.21851 11.6764 7.58168 12.0257 7.82173 12.4719C8.06179 12.9151 8.18182 13.4276 8.18182 14.0092C8.18182 14.5878 8.06025 15.0972 7.81712 15.5373C7.57706 15.9743 7.2139 16.3144 6.72763 16.5575C6.24444 16.8007 5.6366 16.9222 4.90412 16.9222H2.35121V15.6942H4.77486C5.23651 15.6942 5.61198 15.6281 5.90128 15.4957C6.19366 15.3634 6.40755 15.171 6.54297 14.9187C6.67839 14.6663 6.74609 14.3632 6.74609 14.0092C6.74609 13.6522 6.67685 13.3429 6.53835 13.0813C6.40294 12.8197 6.18904 12.6197 5.89666 12.4812C5.60736 12.3396 5.22727 12.2688 4.75639 12.2688H2.9652V20.5H1.53871ZM6.20597 16.2344L8.5419 20.5H6.9169L4.62713 16.2344H6.20597ZM12.4491 20.6431C11.7504 20.6431 11.1488 20.4938 10.644 20.1953C10.1424 19.8937 9.75458 19.4705 9.48066 18.9258C9.20983 18.378 9.07441 17.7363 9.07441 17.0007C9.07441 16.2744 9.20983 15.6342 9.48066 15.0803C9.75458 14.5263 10.1362 14.0939 10.6256 13.783C11.118 13.4722 11.6935 13.3168 12.3521 13.3168C12.7522 13.3168 13.14 13.3829 13.5155 13.5153C13.8909 13.6476 14.2279 13.8554 14.5265 14.1385C14.825 14.4216 15.0604 14.7894 15.2328 15.2418C15.4051 15.6912 15.4913 16.2375 15.4913 16.8807V17.37H9.8546V16.3359H14.1387C14.1387 15.9728 14.0648 15.6512 13.9171 15.3711C13.7694 15.0879 13.5616 14.8648 13.2939 14.7017C13.0292 14.5386 12.7184 14.457 12.3613 14.457C11.9736 14.457 11.635 14.5524 11.3457 14.7433C11.0595 14.931 10.8379 15.1772 10.6809 15.4819C10.5271 15.7835 10.4501 16.1113 10.4501 16.4652V17.2731C10.4501 17.747 10.5332 18.1502 10.6994 18.4826C10.8687 18.815 11.1041 19.0689 11.4057 19.2443C11.7073 19.4167 12.0597 19.5028 12.4629 19.5028C12.7245 19.5028 12.963 19.4659 13.1785 19.392C13.3939 19.3151 13.5801 19.2012 13.7371 19.0504C13.894 18.8996 14.014 18.7134 14.0971 18.4918L15.4036 18.7273C15.299 19.112 15.1112 19.449 14.8404 19.7383C14.5726 20.0245 14.2356 20.2476 13.8294 20.4077C13.4262 20.5646 12.9661 20.6431 12.4491 20.6431ZM18.7614 20.657C18.3121 20.657 17.9058 20.5739 17.5426 20.4077C17.1795 20.2384 16.8917 19.9937 16.6794 19.6737C16.4701 19.3536 16.3654 18.9612 16.3654 18.4964C16.3654 18.0964 16.4424 17.767 16.5963 17.5085C16.7502 17.25 16.9579 17.0453 17.2195 16.8945C17.4811 16.7437 17.7735 16.6299 18.0966 16.5529C18.4198 16.476 18.7491 16.4175 19.0846 16.3775C19.5093 16.3282 19.854 16.2882 20.1186 16.2575C20.3833 16.2236 20.5757 16.1697 20.6957 16.0959C20.8157 16.022 20.8757 15.902 20.8757 15.7358V15.7035C20.8757 15.3003 20.7619 14.9879 20.5341 14.7663C20.3095 14.5447 19.974 14.4339 19.5277 14.4339C19.063 14.4339 18.6968 14.537 18.429 14.7433C18.1643 14.9464 17.9812 15.1726 17.8797 15.4219L16.5824 15.1264C16.7363 14.6955 16.961 14.3478 17.2564 14.0831C17.555 13.8153 17.8981 13.6214 18.2859 13.5014C18.6737 13.3783 19.0815 13.3168 19.5093 13.3168C19.7924 13.3168 20.0925 13.3506 20.4095 13.4183C20.7296 13.483 21.0281 13.603 21.3051 13.7784C21.5851 13.9538 21.8144 14.2047 21.9929 14.5309C22.1714 14.854 22.2607 15.2741 22.2607 15.7912V20.5H20.9127V19.5305H20.8573C20.768 19.709 20.6342 19.8845 20.4556 20.0568C20.2771 20.2292 20.0479 20.3723 19.7678 20.4862C19.4877 20.6 19.1523 20.657 18.7614 20.657ZM19.0615 19.549C19.4431 19.549 19.7693 19.4736 20.0402 19.3228C20.3141 19.172 20.5218 18.975 20.6634 18.7319C20.808 18.4857 20.8804 18.2225 20.8804 17.9425V17.0284C20.8311 17.0777 20.7357 17.1238 20.5941 17.1669C20.4556 17.2069 20.2971 17.2423 20.1186 17.2731C19.9401 17.3008 19.7663 17.3269 19.597 17.3516C19.4277 17.3731 19.2861 17.3916 19.1723 17.407C18.9045 17.4408 18.6598 17.4978 18.4382 17.5778C18.2197 17.6578 18.0443 17.7732 17.912 17.924C17.7827 18.0717 17.7181 18.2687 17.7181 18.5149C17.7181 18.8565 17.8443 19.1151 18.0966 19.2905C18.349 19.4628 18.6706 19.549 19.0615 19.549ZM26.4287 20.6385C25.8562 20.6385 25.3453 20.4923 24.896 20.1999C24.4497 19.9045 24.0989 19.4844 23.8434 18.9396C23.5911 18.3918 23.4649 17.7347 23.4649 16.9684C23.4649 16.2021 23.5926 15.5465 23.8481 15.0018C24.1066 14.457 24.4605 14.04 24.9099 13.7507C25.3592 13.4614 25.8685 13.3168 26.4379 13.3168C26.878 13.3168 27.2319 13.3906 27.4997 13.5384C27.7705 13.683 27.9798 13.8523 28.1275 14.0462C28.2783 14.2401 28.3953 14.4109 28.4784 14.5586H28.5615V11.0455H29.9418V20.5H28.5938V19.3967H28.4784C28.3953 19.5475 28.2753 19.7198 28.1183 19.9137C27.9644 20.1076 27.7521 20.2769 27.4812 20.4215C27.2104 20.5662 26.8595 20.6385 26.4287 20.6385ZM26.7334 19.4613C27.1304 19.4613 27.4658 19.3567 27.7398 19.1474C28.0167 18.935 28.226 18.6411 28.3676 18.2656C28.5122 17.8902 28.5846 17.4531 28.5846 16.9545C28.5846 16.4621 28.5138 16.0312 28.3722 15.6619C28.2306 15.2926 28.0229 15.0049 27.749 14.7987C27.4751 14.5924 27.1365 14.4893 26.7334 14.4893C26.3179 14.4893 25.9716 14.5971 25.6947 14.8125C25.4177 15.0279 25.2084 15.3219 25.0668 15.6942C24.9283 16.0666 24.8591 16.4867 24.8591 16.9545C24.8591 17.4285 24.9299 17.8548 25.0714 18.2333C25.213 18.6119 25.4223 18.9119 25.6993 19.1335C25.9793 19.352 26.324 19.4613 26.7334 19.4613ZM34.7023 20.5V13.4091H36.0273V14.5632H36.115C36.2627 14.1723 36.5043 13.8677 36.8398 13.6491C37.1752 13.4276 37.5769 13.3168 38.0447 13.3168C38.5186 13.3168 38.9156 13.4276 39.2357 13.6491C39.5589 13.8707 39.7974 14.1754 39.9513 14.5632H40.0251C40.1944 14.1847 40.4637 13.883 40.833 13.6584C41.2023 13.4306 41.6424 13.3168 42.1533 13.3168C42.7965 13.3168 43.3213 13.5183 43.7275 13.9215C44.1369 14.3247 44.3415 14.9325 44.3415 15.745V20.5H42.9612V15.8743C42.9612 15.3942 42.8304 15.0464 42.5688 14.831C42.3072 14.6155 41.9948 14.5078 41.6317 14.5078C41.1823 14.5078 40.833 14.6463 40.5837 14.9233C40.3344 15.1972 40.2098 15.5496 40.2098 15.9805V20.5H38.8341V15.7866C38.8341 15.4019 38.714 15.0926 38.474 14.8587C38.2339 14.6248 37.9215 14.5078 37.5368 14.5078C37.2752 14.5078 37.0336 14.5771 36.8121 14.7156C36.5935 14.851 36.4166 15.0402 36.2812 15.2834C36.1488 15.5265 36.0827 15.8081 36.0827 16.1282V20.5H34.7023ZM48.8534 20.6431C48.1887 20.6431 47.6085 20.4908 47.113 20.1861C46.6175 19.8814 46.2328 19.4551 45.9589 18.9073C45.685 18.3595 45.548 17.7193 45.548 16.9869C45.548 16.2513 45.685 15.6081 45.9589 15.0572C46.2328 14.5063 46.6175 14.0785 47.113 13.7738C47.6085 13.4691 48.1887 13.3168 48.8534 13.3168C49.5182 13.3168 50.0984 13.4691 50.5939 13.7738C51.0894 14.0785 51.4741 14.5063 51.748 15.0572C52.0219 15.6081 52.1588 16.2513 52.1588 16.9869C52.1588 17.7193 52.0219 18.3595 51.748 18.9073C51.4741 19.4551 51.0894 19.8814 50.5939 20.1861C50.0984 20.4908 49.5182 20.6431 48.8534 20.6431ZM48.8581 19.4844C49.2889 19.4844 49.6459 19.3705 49.9291 19.1428C50.2122 18.915 50.4215 18.6119 50.5569 18.2333C50.6954 17.8548 50.7647 17.4377 50.7647 16.9822C50.7647 16.5298 50.6954 16.1143 50.5569 15.7358C50.4215 15.3542 50.2122 15.0479 49.9291 14.8171C49.6459 14.5863 49.2889 14.4709 48.8581 14.4709C48.4241 14.4709 48.064 14.5863 47.7778 14.8171C47.4947 15.0479 47.2838 15.3542 47.1453 15.7358C47.0099 16.1143 46.9422 16.5298 46.9422 16.9822C46.9422 17.4377 47.0099 17.8548 47.1453 18.2333C47.2838 18.6119 47.4947 18.915 47.7778 19.1428C48.064 19.3705 48.4241 19.4844 48.8581 19.4844ZM53.3746 20.5V13.4091H54.7088V14.5355H54.7826C54.9119 14.1539 55.1396 13.8538 55.4659 13.6353C55.7952 13.4137 56.1676 13.3029 56.583 13.3029C56.6692 13.3029 56.7708 13.306 56.8877 13.3121C57.0078 13.3183 57.1016 13.326 57.1693 13.3352V14.6555C57.1139 14.6402 57.0155 14.6232 56.8739 14.6048C56.7323 14.5832 56.5907 14.5724 56.4492 14.5724C56.1229 14.5724 55.8321 14.6417 55.5766 14.7802C55.3243 14.9156 55.1242 15.1049 54.9765 15.348C54.8288 15.5881 54.7549 15.862 54.7549 16.1697V20.5H53.3746ZM60.8411 20.6431C60.1424 20.6431 59.5407 20.4938 59.036 20.1953C58.5344 19.8937 58.1466 19.4705 57.8727 18.9258C57.6018 18.378 57.4664 17.7363 57.4664 17.0007C57.4664 16.2744 57.6018 15.6342 57.8727 15.0803C58.1466 14.5263 58.5282 14.0939 59.0175 13.783C59.51 13.4722 60.0855 13.3168 60.7441 13.3168C61.1442 13.3168 61.532 13.3829 61.9075 13.5153C62.2829 13.6476 62.6199 13.8554 62.9185 14.1385C63.217 14.4216 63.4524 14.7894 63.6248 15.2418C63.7971 15.6912 63.8833 16.2375 63.8833 16.8807V17.37H58.2466V16.3359H62.5307C62.5307 15.9728 62.4568 15.6512 62.3091 15.3711C62.1614 15.0879 61.9536 14.8648 61.6859 14.7017C61.4212 14.5386 61.1103 14.457 60.7533 14.457C60.3656 14.457 60.027 14.5524 59.7377 14.7433C59.4515 14.931 59.2299 15.1772 59.0729 15.4819C58.9191 15.7835 58.8421 16.1113 58.8421 16.4652V17.2731C58.8421 17.747 58.9252 18.1502 59.0914 18.4826C59.2607 18.815 59.4961 19.0689 59.7977 19.2443C60.0993 19.4167 60.4517 19.5028 60.8549 19.5028C61.1165 19.5028 61.355 19.4659 61.5705 19.392C61.7859 19.3151 61.9721 19.2012 62.129 19.0504C62.286 18.8996 62.406 18.7134 62.4891 18.4918L63.7956 18.7273C63.691 19.112 63.5032 19.449 63.2324 19.7383C62.9646 20.0245 62.6276 20.2476 62.2214 20.4077C61.8182 20.5646 61.3581 20.6431 60.8411 20.6431Z" fill="white"/>
<path d="M83.3245 16.4245L79.7245 20.0245C79.6118 20.1372 79.4589 20.2006 79.2995 20.2006C79.1401 20.2006 78.9872 20.1372 78.8745 20.0245C78.7618 19.9118 78.6985 19.7589 78.6985 19.5995C78.6985 19.4401 78.7618 19.2872 78.8745 19.1745L81.45 16.6H74.1C73.9409 16.6 73.7883 16.5368 73.6757 16.4243C73.5632 16.3118 73.5 16.1591 73.5 16C73.5 15.8409 73.5632 15.6883 73.6757 15.5758C73.7883 15.4632 73.9409 15.4 74.1 15.4H81.45L78.8755 12.824C78.7628 12.7113 78.6995 12.5584 78.6995 12.399C78.6995 12.2396 78.7628 12.0867 78.8755 11.974C78.9882 11.8613 79.1411 11.798 79.3005 11.798C79.4599 11.798 79.6128 11.8613 79.7255 11.974L83.3255 15.574C83.3814 15.6298 83.4258 15.6962 83.4561 15.7692C83.4863 15.8422 83.5018 15.9204 83.5017 15.9995C83.5016 16.0785 83.4859 16.1567 83.4555 16.2297C83.4251 16.3026 83.3806 16.3688 83.3245 16.4245Z" fill="white"/>
</svg>
