<svg width="230" height="32" viewBox="0 0 230 32" fill="none" xmlns="http://www.w3.org/2000/svg">
<g clip-path="url(#clip0_27_350)">
<path d="M15.3651 11.0455L17.9964 18.7457H18.1026L20.734 11.0455H22.2759L18.8736 20.5H17.2255L13.8232 11.0455H15.3651ZM25.5506 20.6431C24.852 20.6431 24.2503 20.4938 23.7456 20.1953C23.2439 19.8937 22.8561 19.4705 22.5822 18.9258C22.3114 18.378 22.176 17.7363 22.176 17.0007C22.176 16.2744 22.3114 15.6342 22.5822 15.0803C22.8561 14.5263 23.2378 14.0939 23.7271 13.783C24.2195 13.4722 24.7951 13.3168 25.4537 13.3168C25.8538 13.3168 26.2416 13.3829 26.617 13.5153C26.9925 13.6476 27.3295 13.8554 27.628 14.1385C27.9266 14.4216 28.162 14.7894 28.3344 15.2418C28.5067 15.6912 28.5929 16.2375 28.5929 16.8807V17.37H22.9562V16.3359H27.2403C27.2403 15.9728 27.1664 15.6512 27.0187 15.3711C26.8709 15.0879 26.6632 14.8648 26.3954 14.7017C26.1308 14.5386 25.8199 14.457 25.4629 14.457C25.0751 14.457 24.7366 14.5524 24.4473 14.7433C24.1611 14.931 23.9395 15.1772 23.7825 15.4819C23.6286 15.7835 23.5517 16.1113 23.5517 16.4652V17.2731C23.5517 17.747 23.6348 18.1502 23.801 18.4826C23.9702 18.815 24.2057 19.0689 24.5073 19.2443C24.8089 19.4167 25.1613 19.5028 25.5645 19.5028C25.8261 19.5028 26.0646 19.4659 26.28 19.392C26.4955 19.3151 26.6817 19.2012 26.8386 19.0504C26.9956 18.8996 27.1156 18.7134 27.1987 18.4918L28.5052 18.7273C28.4005 19.112 28.2128 19.449 27.942 19.7383C27.6742 20.0245 27.3372 20.2476 26.9309 20.4077C26.5278 20.5646 26.0677 20.6431 25.5506 20.6431ZM29.7994 20.5V13.4091H31.1336V14.5355H31.2074C31.3367 14.1539 31.5644 13.8538 31.8907 13.6353C32.22 13.4137 32.5924 13.3029 33.0078 13.3029C33.094 13.3029 33.1956 13.306 33.3125 13.3121C33.4326 13.3183 33.5264 13.326 33.5941 13.3352V14.6555C33.5387 14.6402 33.4403 14.6232 33.2987 14.6048C33.1571 14.5832 33.0155 14.5724 32.874 14.5724C32.5477 14.5724 32.2569 14.6417 32.0015 14.7802C31.7491 14.9156 31.549 15.1049 31.4013 15.348C31.2536 15.5881 31.1797 15.862 31.1797 16.1697V20.5H29.7994ZM39.7772 15.1403L38.5262 15.3619C38.4738 15.2018 38.3907 15.0495 38.2769 14.9048C38.1661 14.7602 38.0153 14.6417 37.8244 14.5494C37.6336 14.457 37.3951 14.4109 37.1089 14.4109C36.718 14.4109 36.3918 14.4986 36.1302 14.674C35.8686 14.8464 35.7378 15.0695 35.7378 15.3434C35.7378 15.5804 35.8255 15.7712 36.0009 15.9158C36.1764 16.0605 36.4595 16.179 36.8504 16.2713L37.9768 16.5298C38.6293 16.6806 39.1155 16.913 39.4356 17.2269C39.7557 17.5408 39.9157 17.9486 39.9157 18.4503C39.9157 18.875 39.7926 19.2536 39.5464 19.5859C39.3033 19.9152 38.9632 20.1738 38.5262 20.3615C38.0922 20.5492 37.589 20.6431 37.0166 20.6431C36.2225 20.6431 35.5747 20.4738 35.073 20.1353C34.5714 19.7937 34.2636 19.3089 34.1497 18.6811L35.4839 18.478C35.567 18.8258 35.7378 19.0889 35.9963 19.2674C36.2548 19.4428 36.5918 19.5305 37.0073 19.5305C37.4597 19.5305 37.8214 19.4367 38.0922 19.2489C38.363 19.0581 38.4985 18.8258 38.4985 18.5518C38.4985 18.3303 38.4154 18.1441 38.2492 17.9933C38.086 17.8424 37.8352 17.7286 37.4967 17.6516L36.2964 17.3885C35.6347 17.2377 35.1454 16.9976 34.8284 16.6683C34.5144 16.339 34.3575 15.922 34.3575 15.4173C34.3575 14.9987 34.4744 14.6325 34.7083 14.3185C34.9422 14.0046 35.2654 13.7599 35.6778 13.5845C36.0902 13.406 36.5626 13.3168 37.095 13.3168C37.8614 13.3168 38.4646 13.483 38.9047 13.8153C39.3448 14.1446 39.6356 14.5863 39.7772 15.1403ZM41.1084 20.5V13.4091H42.4887V20.5H41.1084ZM41.8055 12.315C41.5654 12.315 41.3592 12.235 41.1869 12.0749C41.0176 11.9118 40.933 11.7179 40.933 11.4933C40.933 11.2655 41.0176 11.0716 41.1869 10.9116C41.3592 10.7485 41.5654 10.6669 41.8055 10.6669C42.0455 10.6669 42.2502 10.7485 42.4195 10.9116C42.5918 11.0716 42.678 11.2655 42.678 11.4933C42.678 11.7179 42.5918 11.9118 42.4195 12.0749C42.2502 12.235 42.0455 12.315 41.8055 12.315ZM47.0075 20.6431C46.3428 20.6431 45.7626 20.4908 45.2671 20.1861C44.7716 19.8814 44.3869 19.4551 44.113 18.9073C43.8391 18.3595 43.7021 17.7193 43.7021 16.9869C43.7021 16.2513 43.8391 15.6081 44.113 15.0572C44.3869 14.5063 44.7716 14.0785 45.2671 13.7738C45.7626 13.4691 46.3428 13.3168 47.0075 13.3168C47.6723 13.3168 48.2525 13.4691 48.748 13.7738C49.2435 14.0785 49.6282 14.5063 49.9021 15.0572C50.176 15.6081 50.3129 16.2513 50.3129 16.9869C50.3129 17.7193 50.176 18.3595 49.9021 18.9073C49.6282 19.4551 49.2435 19.8814 48.748 20.1861C48.2525 20.4908 47.6723 20.6431 47.0075 20.6431ZM47.0122 19.4844C47.443 19.4844 47.8 19.3705 48.0832 19.1428C48.3663 18.915 48.5756 18.6119 48.711 18.2333C48.8495 17.8548 48.9188 17.4377 48.9188 16.9822C48.9188 16.5298 48.8495 16.1143 48.711 15.7358C48.5756 15.3542 48.3663 15.0479 48.0832 14.8171C47.8 14.5863 47.443 14.4709 47.0122 14.4709C46.5782 14.4709 46.2181 14.5863 45.9319 14.8171C45.6488 15.0479 45.4379 15.3542 45.2994 15.7358C45.164 16.1143 45.0963 16.5298 45.0963 16.9822C45.0963 17.4377 45.164 17.8548 45.2994 18.2333C45.4379 18.6119 45.6488 18.915 45.9319 19.1428C46.2181 19.3705 46.5782 19.4844 47.0122 19.4844ZM52.909 16.2898V20.5H51.5287V13.4091H52.8536V14.5632H52.9413C53.1045 14.1877 53.3599 13.8861 53.7077 13.6584C54.0585 13.4306 54.5002 13.3168 55.0326 13.3168C55.5158 13.3168 55.939 13.4183 56.3021 13.6214C56.6653 13.8215 56.9469 14.12 57.1469 14.517C57.347 14.9141 57.447 15.4049 57.447 15.9897V20.5H56.0667V16.1559C56.0667 15.6419 55.9328 15.2403 55.6651 14.951C55.3973 14.6586 55.0295 14.5124 54.5617 14.5124C54.2416 14.5124 53.957 14.5817 53.7077 14.7202C53.4615 14.8587 53.266 15.0618 53.1214 15.3295C52.9798 15.5942 52.909 15.9143 52.909 16.2898ZM62.0702 20.5V19.4659L65.2694 16.1513C65.611 15.7912 65.8926 15.4757 66.1142 15.2049C66.3389 14.931 66.5066 14.6709 66.6174 14.4247C66.7282 14.1785 66.7836 13.9169 66.7836 13.6399C66.7836 13.326 66.7097 13.0552 66.562 12.8274C66.4143 12.5966 66.2127 12.4196 65.9573 12.2965C65.7018 12.1703 65.4141 12.1072 65.094 12.1072C64.7554 12.1072 64.46 12.1765 64.2076 12.315C63.9553 12.4535 63.7614 12.6489 63.6259 12.9013C63.4905 13.1536 63.4228 13.4491 63.4228 13.7876H62.061C62.061 13.2121 62.1933 12.7089 62.458 12.2781C62.7227 11.8472 63.0858 11.5133 63.5475 11.2763C64.0091 11.0362 64.5338 10.9162 65.1217 10.9162C65.7157 10.9162 66.2389 11.0347 66.6913 11.2717C67.1468 11.5056 67.5022 11.8256 67.7577 12.2319C68.0131 12.6351 68.1409 13.0906 68.1409 13.5984C68.1409 13.9492 68.0747 14.2924 67.9423 14.6278C67.8131 14.9633 67.5869 15.3372 67.2637 15.7496C66.9406 16.159 66.4912 16.656 65.9157 17.2408L64.0368 19.2074V19.2766H68.2932V20.5H62.0702ZM70.6458 20.5877C70.3934 20.5877 70.1764 20.4985 69.9948 20.32C69.8133 20.1384 69.7225 19.9199 69.7225 19.6644C69.7225 19.4121 69.8133 19.1966 69.9948 19.0181C70.1764 18.8365 70.3934 18.7457 70.6458 18.7457C70.8981 18.7457 71.1151 18.8365 71.2967 19.0181C71.4783 19.1966 71.5691 19.4121 71.5691 19.6644C71.5691 19.8337 71.526 19.9891 71.4398 20.1307C71.3567 20.2692 71.2459 20.38 71.1074 20.4631C70.9689 20.5462 70.815 20.5877 70.6458 20.5877ZM76.0233 20.657C75.2939 20.6539 74.6706 20.4615 74.1536 20.0799C73.6365 19.6983 73.2411 19.1428 72.9672 18.4134C72.6932 17.6839 72.5563 16.8053 72.5563 15.7773C72.5563 14.7525 72.6932 13.8769 72.9672 13.1506C73.2441 12.4242 73.6412 11.8703 74.1582 11.4886C74.6783 11.107 75.3 10.9162 76.0233 10.9162C76.7465 10.9162 77.3667 11.1085 77.8837 11.4933C78.4007 11.8749 78.7962 12.4289 79.0701 13.1552C79.3471 13.8784 79.4856 14.7525 79.4856 15.7773C79.4856 16.8084 79.3487 17.6886 79.0748 18.418C78.8008 19.1443 78.4054 19.6998 77.8883 20.0845C77.3713 20.4661 76.7496 20.657 76.0233 20.657ZM76.0233 19.4244C76.6634 19.4244 77.1635 19.112 77.5236 18.4872C77.8868 17.8625 78.0684 16.9592 78.0684 15.7773C78.0684 14.9925 77.9853 14.3293 77.8191 13.7876C77.656 13.2429 77.4205 12.8305 77.1127 12.5504C76.8081 12.2673 76.4449 12.1257 76.0233 12.1257C75.3862 12.1257 74.8861 12.4396 74.5229 13.0675C74.1597 13.6953 73.9766 14.5986 73.9735 15.7773C73.9735 16.5652 74.0551 17.2315 74.2182 17.7763C74.3844 18.3179 74.6199 18.7288 74.9245 19.0089C75.2292 19.2859 75.5955 19.4244 76.0233 19.4244ZM83.9322 20.5V13.4091H85.3125V20.5H83.9322ZM84.6293 12.315C84.3892 12.315 84.183 12.235 84.0107 12.0749C83.8414 11.9118 83.7568 11.7179 83.7568 11.4933C83.7568 11.2655 83.8414 11.0716 84.0107 10.9116C84.183 10.7485 84.3892 10.6669 84.6293 10.6669C84.8694 10.6669 85.074 10.7485 85.2433 10.9116C85.4156 11.0716 85.5018 11.2655 85.5018 11.4933C85.5018 11.7179 85.4156 11.9118 85.2433 12.0749C85.074 12.235 84.8694 12.315 84.6293 12.315ZM92.1581 15.1403L90.907 15.3619C90.8547 15.2018 90.7716 15.0495 90.6577 14.9048C90.5469 14.7602 90.3961 14.6417 90.2053 14.5494C90.0145 14.457 89.776 14.4109 89.4898 14.4109C89.0989 14.4109 88.7727 14.4986 88.5111 14.674C88.2495 14.8464 88.1187 15.0695 88.1187 15.3434C88.1187 15.5804 88.2064 15.7712 88.3818 15.9158C88.5572 16.0605 88.8404 16.179 89.2312 16.2713L90.3577 16.5298C91.0101 16.6806 91.4964 16.913 91.8165 17.2269C92.1365 17.5408 92.2966 17.9486 92.2966 18.4503C92.2966 18.875 92.1735 19.2536 91.9273 19.5859C91.6841 19.9152 91.344 20.1738 90.907 20.3615C90.4731 20.5492 89.9699 20.6431 89.3974 20.6431C88.6034 20.6431 87.9555 20.4738 87.4539 20.1353C86.9522 19.7937 86.6445 19.3089 86.5306 18.6811L87.8648 18.478C87.9479 18.8258 88.1187 19.0889 88.3772 19.2674C88.6357 19.4428 88.9727 19.5305 89.3882 19.5305C89.8406 19.5305 90.2022 19.4367 90.4731 19.2489C90.7439 19.0581 90.8793 18.8258 90.8793 18.5518C90.8793 18.3303 90.7962 18.1441 90.63 17.9933C90.4669 17.8424 90.2161 17.7286 89.8775 17.6516L88.6773 17.3885C88.0156 17.2377 87.5262 16.9976 87.2092 16.6683C86.8953 16.339 86.7383 15.922 86.7383 15.4173C86.7383 14.9987 86.8553 14.6325 87.0892 14.3185C87.3231 14.0046 87.6462 13.7599 88.0586 13.5845C88.4711 13.406 88.9435 13.3168 89.4759 13.3168C90.2422 13.3168 90.8455 13.483 91.2856 13.8153C91.7257 14.1446 92.0165 14.5863 92.1581 15.1403ZM97.985 16.2898V20.5H96.6047V11.0455H97.9665V14.5632H98.0542C98.2204 14.1816 98.4743 13.8784 98.816 13.6538C99.1576 13.4291 99.6038 13.3168 100.155 13.3168C100.641 13.3168 101.066 13.4168 101.429 13.6168C101.795 13.8169 102.078 14.1154 102.278 14.5124C102.481 14.9064 102.583 15.3988 102.583 15.9897V20.5H101.203V16.1559C101.203 15.6358 101.069 15.2326 100.801 14.9464C100.533 14.6571 100.161 14.5124 99.6839 14.5124C99.3576 14.5124 99.0653 14.5817 98.8067 14.7202C98.5513 14.8587 98.3497 15.0618 98.202 15.3295C98.0573 15.5942 97.985 15.9143 97.985 16.2898ZM107.156 20.6431C106.457 20.6431 105.856 20.4938 105.351 20.1953C104.849 19.8937 104.462 19.4705 104.188 18.9258C103.917 18.378 103.781 17.7363 103.781 17.0007C103.781 16.2744 103.917 15.6342 104.188 15.0803C104.462 14.5263 104.843 14.0939 105.333 13.783C105.825 13.4722 106.401 13.3168 107.059 13.3168C107.459 13.3168 107.847 13.3829 108.222 13.5153C108.598 13.6476 108.935 13.8554 109.234 14.1385C109.532 14.4216 109.767 14.7894 109.94 15.2418C110.112 15.6912 110.198 16.2375 110.198 16.8807V17.37H104.562V16.3359H108.846C108.846 15.9728 108.772 15.6512 108.624 15.3711C108.476 15.0879 108.269 14.8648 108.001 14.7017C107.736 14.5386 107.425 14.457 107.068 14.457C106.681 14.457 106.342 14.5524 106.053 14.7433C105.767 14.931 105.545 15.1772 105.388 15.4819C105.234 15.7835 105.157 16.1113 105.157 16.4652V17.2731C105.157 17.747 105.24 18.1502 105.406 18.4826C105.576 18.815 105.811 19.0689 106.113 19.2443C106.414 19.4167 106.767 19.5028 107.17 19.5028C107.432 19.5028 107.67 19.4659 107.885 19.392C108.101 19.3151 108.287 19.2012 108.444 19.0504C108.601 18.8996 108.721 18.7134 108.804 18.4918L110.111 18.7273C110.006 19.112 109.818 19.449 109.547 19.7383C109.28 20.0245 108.943 20.2476 108.536 20.4077C108.133 20.5646 107.673 20.6431 107.156 20.6431ZM111.405 20.5V13.4091H112.739V14.5355H112.813C112.942 14.1539 113.17 13.8538 113.496 13.6353C113.825 13.4137 114.198 13.3029 114.613 13.3029C114.699 13.3029 114.801 13.306 114.918 13.3121C115.038 13.3183 115.132 13.326 115.2 13.3352V14.6555C115.144 14.6402 115.046 14.6232 114.904 14.6048C114.763 14.5832 114.621 14.5724 114.479 14.5724C114.153 14.5724 113.862 14.6417 113.607 14.7802C113.355 14.9156 113.155 15.1049 113.007 15.348C112.859 15.5881 112.785 15.862 112.785 16.1697V20.5H111.405ZM118.871 20.6431C118.173 20.6431 117.571 20.4938 117.066 20.1953C116.565 19.8937 116.177 19.4705 115.903 18.9258C115.632 18.378 115.497 17.7363 115.497 17.0007C115.497 16.2744 115.632 15.6342 115.903 15.0803C116.177 14.5263 116.558 14.0939 117.048 13.783C117.54 13.4722 118.116 13.3168 118.774 13.3168C119.174 13.3168 119.562 13.3829 119.938 13.5153C120.313 13.6476 120.65 13.8554 120.949 14.1385C121.247 14.4216 121.483 14.7894 121.655 15.2418C121.827 15.6912 121.914 16.2375 121.914 16.8807V17.37H116.277V16.3359H120.561C120.561 15.9728 120.487 15.6512 120.339 15.3711C120.192 15.0879 119.984 14.8648 119.716 14.7017C119.451 14.5386 119.141 14.457 118.784 14.457C118.396 14.457 118.057 14.5524 117.768 14.7433C117.482 14.931 117.26 15.1772 117.103 15.4819C116.949 15.7835 116.872 16.1113 116.872 16.4652V17.2731C116.872 17.747 116.955 18.1502 117.122 18.4826C117.291 18.815 117.526 19.0689 117.828 19.2443C118.13 19.4167 118.482 19.5028 118.885 19.5028C119.147 19.5028 119.385 19.4659 119.601 19.392C119.816 19.3151 120.002 19.2012 120.159 19.0504C120.316 18.8996 120.436 18.7134 120.519 18.4918L121.826 18.7273C121.721 19.112 121.533 19.449 121.263 19.7383C120.995 20.0245 120.658 20.2476 120.252 20.4077C119.848 20.5646 119.388 20.6431 118.871 20.6431Z" fill="white" fill-opacity="0.5"/>
<path d="M131.539 20.5V11.0455H134.909C135.641 11.0455 136.249 11.1716 136.732 11.424C137.219 11.6764 137.582 12.0257 137.822 12.4719C138.062 12.9151 138.182 13.4276 138.182 14.0092C138.182 14.5878 138.06 15.0972 137.817 15.5373C137.577 15.9743 137.214 16.3144 136.728 16.5575C136.244 16.8007 135.637 16.9222 134.904 16.9222H132.351V15.6942H134.775C135.237 15.6942 135.612 15.6281 135.901 15.4957C136.194 15.3634 136.408 15.171 136.543 14.9187C136.678 14.6663 136.746 14.3632 136.746 14.0092C136.746 13.6522 136.677 13.3429 136.538 13.0813C136.403 12.8197 136.189 12.6197 135.897 12.4812C135.607 12.3396 135.227 12.2688 134.756 12.2688H132.965V20.5H131.539ZM136.206 16.2344L138.542 20.5H136.917L134.627 16.2344H136.206ZM142.449 20.6431C141.75 20.6431 141.149 20.4938 140.644 20.1953C140.142 19.8937 139.755 19.4705 139.481 18.9258C139.21 18.378 139.074 17.7363 139.074 17.0007C139.074 16.2744 139.21 15.6342 139.481 15.0803C139.755 14.5263 140.136 14.0939 140.626 13.783C141.118 13.4722 141.693 13.3168 142.352 13.3168C142.752 13.3168 143.14 13.3829 143.515 13.5153C143.891 13.6476 144.228 13.8554 144.526 14.1385C144.825 14.4216 145.06 14.7894 145.233 15.2418C145.405 15.6912 145.491 16.2375 145.491 16.8807V17.37H139.855V16.3359H144.139C144.139 15.9728 144.065 15.6512 143.917 15.3711C143.769 15.0879 143.562 14.8648 143.294 14.7017C143.029 14.5386 142.718 14.457 142.361 14.457C141.974 14.457 141.635 14.5524 141.346 14.7433C141.059 14.931 140.838 15.1772 140.681 15.4819C140.527 15.7835 140.45 16.1113 140.45 16.4652V17.2731C140.45 17.747 140.533 18.1502 140.699 18.4826C140.869 18.815 141.104 19.0689 141.406 19.2443C141.707 19.4167 142.06 19.5028 142.463 19.5028C142.725 19.5028 142.963 19.4659 143.178 19.392C143.394 19.3151 143.58 19.2012 143.737 19.0504C143.894 18.8996 144.014 18.7134 144.097 18.4918L145.404 18.7273C145.299 19.112 145.111 19.449 144.84 19.7383C144.573 20.0245 144.236 20.2476 143.829 20.4077C143.426 20.5646 142.966 20.6431 142.449 20.6431ZM148.761 20.657C148.312 20.657 147.906 20.5739 147.543 20.4077C147.179 20.2384 146.892 19.9937 146.679 19.6737C146.47 19.3536 146.365 18.9612 146.365 18.4964C146.365 18.0964 146.442 17.767 146.596 17.5085C146.75 17.25 146.958 17.0453 147.219 16.8945C147.481 16.7437 147.773 16.6299 148.097 16.5529C148.42 16.476 148.749 16.4175 149.085 16.3775C149.509 16.3282 149.854 16.2882 150.119 16.2575C150.383 16.2236 150.576 16.1697 150.696 16.0959C150.816 16.022 150.876 15.902 150.876 15.7358V15.7035C150.876 15.3003 150.762 14.9879 150.534 14.7663C150.309 14.5447 149.974 14.4339 149.528 14.4339C149.063 14.4339 148.697 14.537 148.429 14.7433C148.164 14.9464 147.981 15.1726 147.88 15.4219L146.582 15.1264C146.736 14.6955 146.961 14.3478 147.256 14.0831C147.555 13.8153 147.898 13.6214 148.286 13.5014C148.674 13.3783 149.081 13.3168 149.509 13.3168C149.792 13.3168 150.092 13.3506 150.409 13.4183C150.73 13.483 151.028 13.603 151.305 13.7784C151.585 13.9538 151.814 14.2047 151.993 14.5309C152.171 14.854 152.261 15.2741 152.261 15.7912V20.5H150.913V19.5305H150.857C150.768 19.709 150.634 19.8845 150.456 20.0568C150.277 20.2292 150.048 20.3723 149.768 20.4862C149.488 20.6 149.152 20.657 148.761 20.657ZM149.061 19.549C149.443 19.549 149.769 19.4736 150.04 19.3228C150.314 19.172 150.522 18.975 150.663 18.7319C150.808 18.4857 150.88 18.2225 150.88 17.9425V17.0284C150.831 17.0777 150.736 17.1238 150.594 17.1669C150.456 17.2069 150.297 17.2423 150.119 17.2731C149.94 17.3008 149.766 17.3269 149.597 17.3516C149.428 17.3731 149.286 17.3916 149.172 17.407C148.905 17.4408 148.66 17.4978 148.438 17.5778C148.22 17.6578 148.044 17.7732 147.912 17.924C147.783 18.0717 147.718 18.2687 147.718 18.5149C147.718 18.8565 147.844 19.1151 148.097 19.2905C148.349 19.4628 148.671 19.549 149.061 19.549ZM156.429 20.6385C155.856 20.6385 155.345 20.4923 154.896 20.1999C154.45 19.9045 154.099 19.4844 153.843 18.9396C153.591 18.3918 153.465 17.7347 153.465 16.9684C153.465 16.2021 153.593 15.5465 153.848 15.0018C154.107 14.457 154.461 14.04 154.91 13.7507C155.359 13.4614 155.869 13.3168 156.438 13.3168C156.878 13.3168 157.232 13.3906 157.5 13.5384C157.771 13.683 157.98 13.8523 158.128 14.0462C158.278 14.2401 158.395 14.4109 158.478 14.5586H158.561V11.0455H159.942V20.5H158.594V19.3967H158.478C158.395 19.5475 158.275 19.7198 158.118 19.9137C157.964 20.1076 157.752 20.2769 157.481 20.4215C157.21 20.5662 156.86 20.6385 156.429 20.6385ZM156.733 19.4613C157.13 19.4613 157.466 19.3567 157.74 19.1474C158.017 18.935 158.226 18.6411 158.368 18.2656C158.512 17.8902 158.585 17.4531 158.585 16.9545C158.585 16.4621 158.514 16.0312 158.372 15.6619C158.231 15.2926 158.023 15.0049 157.749 14.7987C157.475 14.5924 157.137 14.4893 156.733 14.4893C156.318 14.4893 155.972 14.5971 155.695 14.8125C155.418 15.0279 155.208 15.3219 155.067 15.6942C154.928 16.0666 154.859 16.4867 154.859 16.9545C154.859 17.4285 154.93 17.8548 155.071 18.2333C155.213 18.6119 155.422 18.9119 155.699 19.1335C155.979 19.352 156.324 19.4613 156.733 19.4613ZM164.702 20.5V13.4091H166.027V14.5632H166.115C166.263 14.1723 166.504 13.8677 166.84 13.6491C167.175 13.4276 167.577 13.3168 168.045 13.3168C168.519 13.3168 168.916 13.4276 169.236 13.6491C169.559 13.8707 169.797 14.1754 169.951 14.5632H170.025C170.194 14.1847 170.464 13.883 170.833 13.6584C171.202 13.4306 171.642 13.3168 172.153 13.3168C172.797 13.3168 173.321 13.5183 173.728 13.9215C174.137 14.3247 174.342 14.9325 174.342 15.745V20.5H172.961V15.8743C172.961 15.3942 172.83 15.0464 172.569 14.831C172.307 14.6155 171.995 14.5078 171.632 14.5078C171.182 14.5078 170.833 14.6463 170.584 14.9233C170.334 15.1972 170.21 15.5496 170.21 15.9805V20.5H168.834V15.7866C168.834 15.4019 168.714 15.0926 168.474 14.8587C168.234 14.6248 167.922 14.5078 167.537 14.5078C167.275 14.5078 167.034 14.5771 166.812 14.7156C166.594 14.851 166.417 15.0402 166.281 15.2834C166.149 15.5265 166.083 15.8081 166.083 16.1282V20.5H164.702ZM178.853 20.6431C178.189 20.6431 177.609 20.4908 177.113 20.1861C176.618 19.8814 176.233 19.4551 175.959 18.9073C175.685 18.3595 175.548 17.7193 175.548 16.9869C175.548 16.2513 175.685 15.6081 175.959 15.0572C176.233 14.5063 176.618 14.0785 177.113 13.7738C177.609 13.4691 178.189 13.3168 178.853 13.3168C179.518 13.3168 180.098 13.4691 180.594 13.7738C181.089 14.0785 181.474 14.5063 181.748 15.0572C182.022 15.6081 182.159 16.2513 182.159 16.9869C182.159 17.7193 182.022 18.3595 181.748 18.9073C181.474 19.4551 181.089 19.8814 180.594 20.1861C180.098 20.4908 179.518 20.6431 178.853 20.6431ZM178.858 19.4844C179.289 19.4844 179.646 19.3705 179.929 19.1428C180.212 18.915 180.422 18.6119 180.557 18.2333C180.695 17.8548 180.765 17.4377 180.765 16.9822C180.765 16.5298 180.695 16.1143 180.557 15.7358C180.422 15.3542 180.212 15.0479 179.929 14.8171C179.646 14.5863 179.289 14.4709 178.858 14.4709C178.424 14.4709 178.064 14.5863 177.778 14.8171C177.495 15.0479 177.284 15.3542 177.145 15.7358C177.01 16.1143 176.942 16.5298 176.942 16.9822C176.942 17.4377 177.01 17.8548 177.145 18.2333C177.284 18.6119 177.495 18.915 177.778 19.1428C178.064 19.3705 178.424 19.4844 178.858 19.4844ZM183.375 20.5V13.4091H184.709V14.5355H184.783C184.912 14.1539 185.14 13.8538 185.466 13.6353C185.795 13.4137 186.168 13.3029 186.583 13.3029C186.669 13.3029 186.771 13.306 186.888 13.3121C187.008 13.3183 187.102 13.326 187.169 13.3352V14.6555C187.114 14.6402 187.015 14.6232 186.874 14.6048C186.732 14.5832 186.591 14.5724 186.449 14.5724C186.123 14.5724 185.832 14.6417 185.577 14.7802C185.324 14.9156 185.124 15.1049 184.977 15.348C184.829 15.5881 184.755 15.862 184.755 16.1697V20.5H183.375ZM190.841 20.6431C190.142 20.6431 189.541 20.4938 189.036 20.1953C188.534 19.8937 188.147 19.4705 187.873 18.9258C187.602 18.378 187.466 17.7363 187.466 17.0007C187.466 16.2744 187.602 15.6342 187.873 15.0803C188.147 14.5263 188.528 14.0939 189.018 13.783C189.51 13.4722 190.085 13.3168 190.744 13.3168C191.144 13.3168 191.532 13.3829 191.907 13.5153C192.283 13.6476 192.62 13.8554 192.918 14.1385C193.217 14.4216 193.452 14.7894 193.625 15.2418C193.797 15.6912 193.883 16.2375 193.883 16.8807V17.37H188.247V16.3359H192.531C192.531 15.9728 192.457 15.6512 192.309 15.3711C192.161 15.0879 191.954 14.8648 191.686 14.7017C191.421 14.5386 191.11 14.457 190.753 14.457C190.366 14.457 190.027 14.5524 189.738 14.7433C189.451 14.931 189.23 15.1772 189.073 15.4819C188.919 15.7835 188.842 16.1113 188.842 16.4652V17.2731C188.842 17.747 188.925 18.1502 189.091 18.4826C189.261 18.815 189.496 19.0689 189.798 19.2443C190.099 19.4167 190.452 19.5028 190.855 19.5028C191.117 19.5028 191.355 19.4659 191.57 19.392C191.786 19.3151 191.972 19.2012 192.129 19.0504C192.286 18.8996 192.406 18.7134 192.489 18.4918L193.796 18.7273C193.691 19.112 193.503 19.449 193.232 19.7383C192.965 20.0245 192.628 20.2476 192.221 20.4077C191.818 20.5646 191.358 20.6431 190.841 20.6431Z" fill="white"/>
<path d="M213.325 16.4245L209.725 20.0245C209.612 20.1372 209.459 20.2006 209.3 20.2006C209.14 20.2006 208.987 20.1372 208.875 20.0245C208.762 19.9118 208.698 19.7589 208.698 19.5995C208.698 19.4401 208.762 19.2872 208.875 19.1745L211.45 16.6H204.1C203.941 16.6 203.788 16.5368 203.676 16.4243C203.563 16.3118 203.5 16.1591 203.5 16C203.5 15.8409 203.563 15.6883 203.676 15.5758C203.788 15.4632 203.941 15.4 204.1 15.4H211.45L208.875 12.824C208.763 12.7113 208.699 12.5584 208.699 12.399C208.699 12.2396 208.763 12.0867 208.875 11.974C208.988 11.8613 209.141 11.798 209.3 11.798C209.46 11.798 209.613 11.8613 209.725 11.974L213.325 15.574C213.381 15.6298 213.426 15.6962 213.456 15.7692C213.486 15.8422 213.502 15.9204 213.502 15.9995C213.502 16.0785 213.486 16.1567 213.456 16.2297C213.425 16.3026 213.381 16.3688 213.325 16.4245Z" fill="white"/>
</g>
<rect x="1" y="1" width="228" height="30" rx="9.5" stroke="#222222"/>
<defs>
<clipPath id="clip0_27_350">
<rect x="0.5" y="0.5" width="229" height="31" rx="10" fill="white"/>
</clipPath>
</defs>
</svg>
